<?xml version="1.0" encoding="UTF-8"?>
<svg id="Calque_1" data-name="Calque 1" xmlns="http://www.w3.org/2000/svg" viewBox="0 0 328.43 280.37">
  <path d="M280.97,186.24c-14.02-10.15-29.84-15.22-47.46-15.22-22.43,0-42.99,9.35-61.68,28.04l-81.31,81.31c-20.83-13.88-37.39-32.04-49.67-54.47-12.29-22.43-18.42-46.59-18.42-72.5,0-17.62,3.2-35.38,9.61-53.27h116.55v-16.82H28.04c-7.48-10.41-13.49-21.63-18.02-33.64h138.58v-16.82H4.81C2.13,22.43.53,11.48,0,0l175.43.4c27.77,0,53.33,6.88,76.7,20.63,23.36,13.75,41.92,32.31,55.67,55.67,13.75,23.37,20.63,48.93,20.63,76.7,0,25.9-6.01,50.07-18.02,72.5-5.61-16.28-15.42-29.5-29.44-39.65ZM264.55,115.15c3.33-3.34,5.01-7.41,5.01-12.22s-1.67-8.87-5.01-12.21c-3.34-3.34-7.41-5.01-12.22-5.01s-8.88,1.67-12.21,5.01c-3.34,3.34-5.01,7.41-5.01,12.21s1.67,8.88,5.01,12.22c3.33,3.34,7.41,5.01,12.21,5.01s8.87-1.67,12.22-5.01Z"/>
</svg>