<?xml version="1.0" encoding="UTF-8" standalone="no"?>
<!DOCTYPE svg PUBLIC "-//W3C//DTD SVG 1.1//EN" "http://www.w3.org/Graphics/SVG/1.1/DTD/svg11.dtd">
<svg width="100%" height="100%" viewBox="0 0 329 281" version="1.1" xmlns="http://www.w3.org/2000/svg" xmlns:xlink="http://www.w3.org/1999/xlink" xml:space="preserve" xmlns:serif="http://www.serif.com/" style="fill-rule:evenodd;clip-rule:evenodd;stroke-linejoin:round;stroke-miterlimit:2;">
    <path d="M280.97,186.24C266.95,176.09 251.13,171.02 233.51,171.02C211.08,171.02 190.52,180.37 171.83,199.06L90.52,280.37C69.69,266.49 53.13,248.33 40.85,225.9C28.56,203.47 22.43,179.31 22.43,153.4C22.43,135.78 25.63,118.02 32.04,100.13L148.59,100.13L148.59,83.31L28.04,83.31C20.56,72.9 14.55,61.68 10.02,49.67L148.6,49.67L148.6,32.85L4.81,32.85C2.13,22.43 0.53,11.48 0,0L175.43,0.4C203.2,0.4 228.76,7.28 252.13,21.03C275.49,34.78 294.05,53.34 307.8,76.7C321.55,100.07 328.43,125.63 328.43,153.4C328.43,179.3 322.42,203.47 310.41,225.9C304.8,209.62 294.99,196.4 280.97,186.25L280.97,186.24ZM264.55,115.15C267.88,111.81 269.56,107.74 269.56,102.93C269.56,98.12 267.89,94.06 264.55,90.72C261.21,87.38 257.14,85.71 252.33,85.71C247.52,85.71 243.45,87.38 240.12,90.72C236.78,94.06 235.11,98.13 235.11,102.93C235.11,107.73 236.78,111.81 240.12,115.15C243.45,118.49 247.53,120.16 252.33,120.16C257.13,120.16 261.2,118.49 264.55,115.15Z" style="fill:rgb(97,97,97);fill-rule:nonzero;"/>
</svg>
